<?xml version="1.0" encoding="utf-8"?>
<!-- Generator: Adobe Illustrator 18.0.0, SVG Export Plug-In . SVG Version: 6.00 Build 0)  -->
<!DOCTYPE svg PUBLIC "-//W3C//DTD SVG 1.1//EN" "http://www.w3.org/Graphics/SVG/1.1/DTD/svg11.dtd">
<svg version="1.1" id="Layer_1" xmlns="http://www.w3.org/2000/svg" xmlns:xlink="http://www.w3.org/1999/xlink" x="0px" y="0px"
	 width="800px" height="600px" viewBox="0 0 800 600" enable-background="new 0 0 800 600" xml:space="preserve">
<g>
	<rect fill="#FAA74A" width="800" height="600"/>
	<path fill="#FFEAD4" d="M800,154.5c0,0-43,3.3-51,22.5s7,21.6,7,21.6s-14,8-22,0s-19.3,11.2-19.3,11.2s-10.7-8-20.2-7.2
		S684,224.1,684,224.1s-1.5-12-14.8,0c-13.3,12-13.3,18.4-25.3,15.2c-12-3.2-16-12.8-29-9.6c-13,3.2-16.7,16.8-16.7,16.8
		s-10.3-2.4-28.3,0c-18,2.4-21,24-21,24s-3-0.8-14,0c-11,0.8-10,14.5-16,20.4c-6,5.9-28,17.6-39,14.9s-17-20.8-24-14.9
		c0,0-32.7-20-43-3.7c0,0-28-4.6-34,3.7s-6,14.4-21,14.9c-15,0.6-15.4-26.4-39.2-14.9c0,0-30.8-21.2-53.8-10.9c0,0,8-11.2,0-17.6
		c-8-6.4-15.4,2.4-24.2,0.8c-8.8-1.6-17-22.4-29.9-19.2c-12.9,3.2-28.9,7.4-28.9,7.4s-6-12.2-21-12.2s-26,12.2-26,12.2
		s0-25.8-8-31.4s-13.8,2.4-13.8,2.4s-2.5-22.4-21.3-20s-19.5,12.8-30.7,12C50,213.7,38,161.8,0,185.8l0,186.7h800V154.5z"/>
	<path fill="#FDC88E" d="M0,266.9c0,0,43,3,51,20.7c8,17.7-7,19.9-7,19.9s14,7.4,22,0c8-7.4,19.3,10.3,19.3,10.3s10.7-7.4,20.2-6.6
		C115,311.9,116,331,116,331s1.5-11,14.8,0s13.3,16.9,25.3,14c12-2.9,16-11.8,29-8.8c13,2.9,16.7,15.5,16.7,15.5s10.3-2.2,28.3,0
		s21,22.1,21,22.1s3-0.7,14,0c11,0.7,10,13.4,16,18.9c6,5.4,28,16.2,39,13.8s17-19.2,24-13.8c0,0,32.7-18.4,43-3.4
		c0,0,28-4.3,34,3.4c6,7.6,6,13.2,21,13.8s15.4-24.4,39.2-13.8c0,0,30.8-19.6,53.8-10c0,0-8-10.3,0-16.2s15.4,2.2,24.2,0.7
		s17-20.6,29.9-17.7c12.9,2.9,28.9,6.9,28.9,6.9s6-11.3,21-11.3s26,11.3,26,11.3s0-23.8,8-28.9c8-5.2,13.8,2.2,13.8,2.2
		s2.5-20.6,21.3-18.4s19.5,11.8,30.7,11c11.2-0.7,23.2-48.6,61.2-26.5v172.1H0V266.9z"/>
	<g>
		<path fill="#F7941E" d="M0,454c40,0,122-70,132-71s24,8,24,8s31-4,56-19s44-22,69-19c0,0,26-20,41-45s24-8,24-8s13-19,20-23
			s17,7,26,7s42-50,57-53s45,44,71,57s35,47,50,67s66,22,78,37s27,37,37,26s16,7,27,16s88,20,88,20v146H0V454z"/>
		<path fill="#F15A29" d="M227,526c34-26,98-40,101-56s-15-7-8-20s90-28,91-45s-33-14-29-26s26-30,29-38s-10-11-11-18s44-35,44-54
			s-12.7-24.7,5-38c-15,3-48,53-57,53s-19-11-26-7s-20,23-20,23s-9-17-24,8s-41,45-41,45c-25-3-44,4-69,19s-56,19-56,19s-14-9-24-8
			S40,454,0,454v146h210C210,600,193,552,227,526z"/>
		<path fill="#F15A29" d="M584,391.1c21,12.1,5,30.9-13,42.9s-15,34-20,47s-41,28-5,21s10-21,35-38s38-13,39-29s6-15,14-19.5
			s6.1-29.5,14-23.5c-12-15-63-17-78-37C586.5,383.2,563,379,584,391.1z"/>
		<path fill="#F7941E" d="M239.8,358c-1.1,9.5,4.2,15.5,4.2,20c0,7-24,12-26.4,26s5.5,24.7-30.3,25.4c-17.7,0.3-56.3,51.3-47.3,53.3
			s37-22.7,63-35.7s40-3,35-17.6c-5-14.6-13-15.4,16-31.4s8-29,27-45C266,351.2,253.1,353,239.8,358z"/>
		<path fill="#F7941E" d="M122,412c8.5-5,10.5,0.5,19-7s5.5-11.5,15-14c0,0-14-9-24-8c-0.1,0-0.2,0-0.3,0.1c-2.8,3.3-3.9,8-6.7,11.9
			c-5,7-19.5,18.5-19.5,23.5S113.5,417,122,412z"/>
	</g>
	<g>
		<path fill="#F15A29" d="M759,530.4c-41.4-3.4-64.1-39.3-92.7-40.2c-28.6-0.9-53.3,26.5-83.8,32.2c-30.6,5.7-27.6,21.7-64.1,29.6
			s-76.9-22.8-103.6-22.8c-26.6,0-54.2,37.6-67.1,39.9c-12.8,2.3-19.7,4.6-31.6,9.1c-11.8,4.6-24.7-12.5-39.5-13.7
			c-14.8-1.1-45.4,20.5-75,35.4H800v-52.4C785.4,538.4,771.7,531.5,759,530.4z"/>
		<path fill="#BD461E" d="M632,550.7c2.7-18,23.3-24.7,22.7-36c-0.7-11.2-13.7-8.1,3.5-23.9c-25.3,3.7-48.1,26.5-75.7,31.7
			c-30.6,5.7-27.6,21.7-64.1,29.6s-76.9-22.8-103.6-22.8c-26.6,0-54.2,37.6-67.1,39.9c-12.8,2.3-19.7,4.6-31.6,9.1
			s-24.7-12.5-39.5-13.7c-14.8-1.1-45.4,20.5-75,35.4h387.4C554.8,578,629.3,568.7,632,550.7z"/>
		<path fill="#F15A29" d="M472,564.7c6.7-8,33.3-11.3,33.3-11.3l0,0c-32.8-0.1-67.1-24.1-90.6-24.1c-0.9,0-1.8,0.1-2.8,0.1
			c-9.3,3.3-19.3,25.2-4,21.9c15.3-3.3-9.3,19.3-2,20.7c7.3,1.3-13.9,16-6,20s9.3,8,9.3,8h18c0,0,18-12,34.7-20
			S465.3,572.8,472,564.7z"/>
	</g>
	<path fill="#BD461E" d="M0,468.7c22.7,4.7,33.3,49.9,48,60.6s20.7,11.4,28.7,22c8,10.7,19,0,28.8,2.7s14.5,19.3,19.2,23.3
		s12.7,0,20.7,4s25.3,18.7,25.3,18.7H0V468.7z"/>
	<circle fill="#FFEAD4" cx="559.2" cy="171" r="24"/>
</g>
</svg>
