<?xml version="1.0" encoding="UTF-8"?>
<svg xmlns="http://www.w3.org/2000/svg" xmlns:xlink="http://www.w3.org/1999/xlink" width="2400px" height="600px" viewBox="0 0 2400 600" version="1.1">
<g id="surface1">
<rect x="0" y="0" width="2400" height="600" style="fill:rgb(98.039216%,65.490196%,29.019608%);fill-opacity:1;stroke:none;"/>
<path style=" stroke:none;fill-rule:nonzero;fill:rgb(100%,91.764706%,83.137255%);fill-opacity:1;" d="M 2400 154.5 C 2400 154.5 2271 157.800781 2247 177 C 2223 196.199219 2268 198.601562 2268 198.601562 C 2268 198.601562 2226 206.601562 2202 198.601562 C 2178 190.601562 2144.101562 209.800781 2144.101562 209.800781 C 2144.101562 209.800781 2112 201.800781 2083.5 202.601562 C 2055 203.398438 2052 224.101562 2052 224.101562 C 2052 224.101562 2047.5 212.101562 2007.601562 224.101562 C 1967.699219 236.101562 1967.699219 242.5 1931.699219 239.300781 C 1895.699219 236.101562 1883.699219 226.5 1844.699219 229.699219 C 1805.699219 232.898438 1794.601562 246.5 1794.601562 246.5 C 1794.601562 246.5 1763.699219 244.101562 1709.699219 246.5 C 1655.699219 248.898438 1646.699219 270.5 1646.699219 270.5 C 1646.699219 270.5 1637.699219 269.699219 1604.699219 270.5 C 1571.699219 271.300781 1574.699219 285 1556.699219 290.898438 C 1538.699219 296.800781 1472.699219 308.5 1439.699219 305.800781 C 1406.699219 303.101562 1388.699219 285 1367.699219 290.898438 C 1367.699219 290.898438 1269.601562 270.898438 1238.699219 287.199219 C 1238.699219 287.199219 1154.699219 282.601562 1136.699219 290.898438 C 1118.699219 299.199219 1118.699219 305.300781 1073.699219 305.800781 C 1028.699219 306.398438 1027.5 279.398438 956.101562 290.898438 C 956.101562 290.898438 863.699219 269.699219 794.699219 280 C 794.699219 280 818.699219 268.800781 794.699219 262.398438 C 770.699219 256 748.5 264.800781 722.101562 263.199219 C 695.699219 261.601562 671.101562 240.800781 632.398438 244 C 593.699219 247.199219 545.699219 251.398438 545.699219 251.398438 C 545.699219 251.398438 527.699219 239.199219 482.699219 239.199219 C 437.699219 239.199219 404.699219 251.398438 404.699219 251.398438 C 404.699219 251.398438 404.699219 225.601562 380.699219 220 C 356.699219 214.398438 339.300781 222.398438 339.300781 222.398438 C 339.300781 222.398438 331.800781 200 275.398438 202.398438 C 219 204.800781 216.898438 215.199219 183.300781 214.398438 C 150 213.699219 114 161.800781 0 185.800781 L 0 372.5 L 2400 372.5 Z M 2400 154.5 "/>
<path style=" stroke:none;fill-rule:nonzero;fill:rgb(99.215686%,78.431373%,55.686275%);fill-opacity:1;" d="M 0 266.898438 C 0 266.898438 129 269.898438 153 287.601562 C 177 305.300781 132 307.5 132 307.5 C 132 307.5 174 314.898438 198 307.5 C 222 300.101562 255.898438 317.800781 255.898438 317.800781 C 255.898438 317.800781 288 310.398438 316.5 311.199219 C 345 311.898438 348 331 348 331 C 348 331 352.5 320 392.398438 331 C 432.300781 342 432.300781 347.898438 468.300781 345 C 504.300781 342.101562 516.300781 333.199219 555.300781 336.199219 C 594.300781 339.101562 605.398438 351.699219 605.398438 351.699219 C 605.398438 351.699219 636.300781 349.5 690.300781 351.699219 C 744.300781 353.898438 753.300781 373.800781 753.300781 373.800781 C 753.300781 373.800781 762.300781 373.101562 795.300781 373.800781 C 828.300781 374.5 825.300781 387.199219 843.300781 392.699219 C 861.300781 398.101562 927.300781 408.898438 960.300781 406.5 C 993.300781 404.101562 1011.300781 387.300781 1032.300781 392.699219 C 1032.300781 392.699219 1130.398438 374.300781 1161.300781 389.300781 C 1161.300781 389.300781 1245.300781 385 1263.300781 392.699219 C 1281.300781 400.300781 1281.300781 405.898438 1326.300781 406.5 C 1371.300781 407.101562 1372.5 382.101562 1443.898438 392.699219 C 1443.898438 392.699219 1536.300781 373.101562 1605.300781 382.699219 C 1605.300781 382.699219 1581.300781 372.398438 1605.300781 366.5 C 1629.300781 360.601562 1651.5 368.699219 1677.898438 367.199219 C 1704.300781 365.699219 1728.898438 346.601562 1767.601562 349.5 C 1806.300781 352.398438 1854.300781 356.398438 1854.300781 356.398438 C 1854.300781 356.398438 1872.300781 345.101562 1917.300781 345.101562 C 1962.300781 345.101562 1995.300781 356.398438 1995.300781 356.398438 C 1995.300781 356.398438 1995.300781 332.601562 2019.300781 327.5 C 2043.300781 322.300781 2060.699219 329.699219 2060.699219 329.699219 C 2060.699219 329.699219 2068.199219 309.101562 2124.601562 311.300781 C 2181 313.5 2183.101562 323.101562 2216.699219 322.300781 C 2250.300781 321.601562 2286.300781 273.699219 2400.300781 295.800781 L 2400.300781 467.898438 L 0 467.898438 Z M 0 266.898438 "/>
<path style=" stroke:none;fill-rule:nonzero;fill:rgb(96.862745%,58.039216%,11.764706%);fill-opacity:1;" d="M 0 454 C 120 454 366 384 396 383 C 426 382 468 391 468 391 C 468 391 561 387 636 372 C 711 357 768 350 843 353 C 843 353 921 333 966 308 C 1011 283 1038 300 1038 300 C 1038 300 1077 281 1098 277 C 1119 273 1149 284 1176 284 C 1203 284 1302 234 1347 231 C 1392 228 1482 275 1560 288 C 1638 301 1665 335 1710 355 C 1755 375 1908 377 1944 392 C 1980 407 2025 429 2055 418 C 2085 407 2103 425 2136 434 C 2169 443 2400 454 2400 454 L 2400 600 L 0 600 Z M 0 454 "/>
<path style=" stroke:none;fill-rule:nonzero;fill:rgb(94.509804%,35.294118%,16.078431%);fill-opacity:1;" d="M 681 526 C 783 500 975 486 984 470 C 993 454 939 463 960 450 C 981 437 1230 422 1233 405 C 1236 388 1134 391 1146 379 C 1158 367 1224 349 1233 341 C 1242 333 1203 330 1200 323 C 1197 316 1332 288 1332 269 C 1332 250 1293.898438 244.300781 1347 231 C 1302 234 1203 284 1176 284 C 1149 284 1119 273 1098 277 C 1077 281 1038 300 1038 300 C 1038 300 1011 283 966 308 C 921 333 843 353 843 353 C 768 350 711 357 636 372 C 561 387 468 391 468 391 C 468 391 426 382 396 383 C 366 384 120 454 0 454 L 0 600 L 630 600 C 630 600 579 552 681 526 Z M 681 526 "/>
<path style=" stroke:none;fill-rule:nonzero;fill:rgb(94.509804%,35.294118%,16.078431%);fill-opacity:1;" d="M 1752 391.101562 C 1815 403.199219 1767 422 1713 434 C 1659 446 1668 468 1653 481 C 1638 494 1530 509 1638 502 C 1746 495 1668 481 1743 464 C 1818 447 1857 451 1860 435 C 1863 419 1878 420 1902 415.5 C 1926 411 1920.300781 386 1944 392 C 1908 377 1755 375 1710 355 C 1759.5 383.199219 1689 379 1752 391.101562 Z M 1752 391.101562 "/>
<path style=" stroke:none;fill-rule:nonzero;fill:rgb(96.862745%,58.039216%,11.764706%);fill-opacity:1;" d="M 719.398438 358 C 716.101562 367.5 732 373.5 732 378 C 732 385 660 390 652.800781 404 C 645.601562 418 669.300781 428.699219 561.898438 429.398438 C 508.800781 429.699219 393 480.699219 420 482.699219 C 447 484.699219 531 460 609 447 C 687 434 729 444 714 429.398438 C 699 414.800781 675 414 762 398 C 849 382 786 369 843 353 C 798 351.199219 759.300781 353 719.398438 358 Z M 719.398438 358 "/>
<path style=" stroke:none;fill-rule:nonzero;fill:rgb(96.862745%,58.039216%,11.764706%);fill-opacity:1;" d="M 366 412 C 391.5 407 397.5 412.5 423 405 C 448.5 397.5 439.5 393.5 468 391 C 468 391 426 382 396 383 C 395.699219 383 395.398438 383 395.101562 383.101562 C 386.699219 386.398438 383.398438 391.101562 375 395 C 360 402 316.5 413.5 316.5 418.5 C 316.5 423.5 340.5 417 366 412 Z M 366 412 "/>
<path style=" stroke:none;fill-rule:nonzero;fill:rgb(94.509804%,35.294118%,16.078431%);fill-opacity:1;" d="M 2277 530.398438 C 2152.800781 527 2084.699219 491.101562 1998.898438 490.199219 C 1913.101562 489.300781 1839 516.699219 1747.5 522.398438 C 1655.699219 528.101562 1664.699219 544.101562 1555.199219 552 C 1445.699219 559.898438 1324.5 529.199219 1244.398438 529.199219 C 1164.601562 529.199219 1081.800781 566.800781 1043.101562 569.101562 C 1004.699219 571.398438 984 573.699219 948.300781 578.199219 C 912.898438 582.800781 874.199219 565.699219 829.800781 564.5 C 785.398438 563.398438 693.601562 585 604.800781 599.898438 L 2400 599.898438 L 2400 547.5 C 2356.199219 538.398438 2315.101562 531.5 2277 530.398438 Z M 2277 530.398438 "/>
<path style=" stroke:none;fill-rule:nonzero;fill:rgb(74.117647%,27.45098%,11.764706%);fill-opacity:1;" d="M 1896 550.699219 C 1904.101562 532.699219 1965.898438 526 1964.101562 514.699219 C 1962 503.5 1923 506.601562 1974.601562 490.800781 C 1898.699219 494.5 1830.300781 517.300781 1747.5 522.5 C 1655.699219 528.199219 1664.699219 544.199219 1555.199219 552.101562 C 1445.699219 560 1324.5 529.300781 1244.398438 529.300781 C 1164.601562 529.300781 1081.800781 566.898438 1043.101562 569.199219 C 1004.699219 571.5 984 573.800781 948.300781 578.300781 C 912.601562 582.800781 874.199219 565.800781 829.800781 564.601562 C 785.398438 563.5 693.601562 585.101562 604.800781 600 L 1767 600 C 1664.398438 578 1887.898438 568.699219 1896 550.699219 Z M 1896 550.699219 "/>
<path style=" stroke:none;fill-rule:nonzero;fill:rgb(94.509804%,35.294118%,16.078431%);fill-opacity:1;" d="M 1416 564.699219 C 1436.101562 556.699219 1515.898438 553.398438 1515.898438 553.398438 C 1417.5 553.300781 1314.601562 529.300781 1244.101562 529.300781 C 1241.398438 529.300781 1238.699219 529.398438 1235.699219 529.398438 C 1207.800781 532.699219 1177.800781 554.601562 1223.699219 551.300781 C 1269.601562 548 1195.800781 570.601562 1217.699219 572 C 1239.601562 573.300781 1176 588 1199.699219 592 C 1223.398438 596 1227.601562 600 1227.601562 600 L 1281.601562 600 C 1281.601562 600 1335.601562 588 1385.699219 580 C 1435.800781 572 1395.898438 572.800781 1416 564.699219 Z M 1416 564.699219 "/>
<path style=" stroke:none;fill-rule:nonzero;fill:rgb(74.117647%,27.45098%,11.764706%);fill-opacity:1;" d="M 0 468.699219 C 68.101562 473.398438 99.898438 518.601562 144 529.300781 C 188.101562 540 206.101562 540.699219 230.101562 551.300781 C 254.101562 562 287.101562 551.300781 316.5 554 C 345.898438 556.699219 360 573.300781 374.101562 577.300781 C 388.199219 581.300781 412.199219 577.300781 436.199219 581.300781 C 460.199219 585.300781 512.101562 600 512.101562 600 L 0 600 Z M 0 468.699219 "/>
<path style=" stroke:none;fill-rule:nonzero;fill:rgb(100%,91.764706%,83.137255%);fill-opacity:1;" d="M 1749.601562 171 C 1749.601562 184.253906 1717.363281 195 1677.601562 195 C 1637.835938 195 1605.601562 184.253906 1605.601562 171 C 1605.601562 157.746094 1637.835938 147 1677.601562 147 C 1717.363281 147 1749.601562 157.746094 1749.601562 171 Z M 1749.601562 171 "/>
</g>
</svg>
